<svg width="250" height="250" viewBox="0 0 250 250" fill="none" xmlns="http://www.w3.org/2000/svg">
<rect width="250" height="250" rx="125" fill="#010101"/>
<path d="M195.1 86.25C195.1 99.0906 163.178 107.95 123.8 107.95C84.4221 107.95 54.05 99.0906 54.05 86.25C54.05 73.4094 85.9721 63 125.35 63C164.728 63 195.1 73.4094 195.1 86.25Z" fill="white"/>
<path d="M212.15 143.6C212.15 164.145 174.144 187 125.35 187C76.5556 187 37 165.695 37 145.15C37 124.605 76.5556 115.7 125.35 115.7C174.144 115.7 212.15 123.055 212.15 143.6Z" fill="white"/>
<path d="M167.2 120.35C167.2 148.25 147.769 165.3 123.8 165.3C99.8308 165.3 80.4 144.319 80.4 120.35C80.4 96.3808 99.8308 76.95 123.8 76.95C147.769 76.95 167.2 96.3808 167.2 120.35Z" fill="black"/>
<path d="M199.181 137.804C174.95 140.5 171.85 126.55 126.9 114.15C103.65 108.405 81.95 105.127 76.7154 102.04C69.5499 95.55 188.9 120.35 182.7 121.9C195.684 128.087 201.777 128.752 199.181 137.804Z" fill="white"/>
<path d="M169.301 128.772C176.454 137.297 180.658 145.546 178.691 147.197C176.724 148.848 161 149.8 162.55 142.05C168.75 129.65 131.55 115.7 133.1 114.15C134.65 112.6 162.148 120.247 169.301 128.772Z" fill="white"/>
<path d="M140.834 116.177C149.818 121.157 156.765 125.801 156.35 126.55C155.935 127.299 148.6 123.45 139.3 118.8C130.315 113.82 115.635 111.799 116.05 111.05C116.465 110.301 131.849 111.197 140.834 116.177Z" fill="white"/>
</svg>
